<!DOCTYPE svg PUBLIC "-//W3C//DTD SVG 1.1//EN" "http://www.w3.org/Graphics/SVG/1.1/DTD/svg11.dtd">
<!-- Uploaded to: SVG Repo, www.svgrepo.com, Transformed by: SVG Repo Mixer Tools -->
<svg height="256px" width="256px" version="1.1" id="Layer_1" xmlns="http://www.w3.org/2000/svg" xmlns:xlink="http://www.w3.org/1999/xlink" viewBox="0 0 512.00 512.00" xml:space="preserve" fill="#000000">
<g id="SVGRepo_bgCarrier" stroke-width="0"/>
<g id="SVGRepo_tracerCarrier" stroke-linecap="round" stroke-linejoin="round"/>
<g id="SVGRepo_iconCarrier"> <g> <polygon style="fill:#D35B38;" points="253.442,102.829 430.307,102.829 430.307,206.192 317.374,206.192 317.374,239.881 283.686,206.192 253.442,206.192 "/> <path style="fill:#D35B38;" d="M129.364,268.775c0,0-2.696,5.213,8.088,10.785c4.391,2.268,12.446,4.477,20.455,6.299l0.77-11.812 c1.062-16.284-11.86-30.075-28.178-30.075h-25.995c-16.319,0-29.24,13.791-28.178,30.075l1.156,17.715 C118.437,289.485,129.364,268.775,129.364,268.775z"/> </g> <path style="fill:#FFE6B8;" d="M137.453,279.56c-10.785-5.572-8.088-10.785-8.088-10.785s-10.926,20.709-51.883,22.987l2.698,41.368 c0.831,12.744,8.107,24.183,19.298,30.338l0,0c11.223,6.173,24.826,6.173,36.049,0l0,0c11.191-6.155,18.467-17.594,19.298-30.338 l3.083-47.272C149.899,284.037,141.843,281.828,137.453,279.56z"/> <path style="fill:#BCC987;" d="M220.5,447.796c-4.618-25.489-24.514-44.93-49.209-49.579c-3.717-0.7-7.54-1.068-11.437-1.068 h-12.965l-29.386,29.386l-29.386-29.386H75.151c-3.898,0-7.722,0.368-11.438,1.068c-24.696,4.65-44.592,24.091-49.209,49.579 l-4.305,23.764h214.607L220.5,447.796z"/> <path style="fill:#D35B38;" d="M406.36,268.775c0,0-2.696,5.213,8.088,10.785c4.391,2.268,12.446,4.477,20.454,6.299l0.77-11.812 c1.062-16.284-11.86-30.075-28.178-30.075h-25.995c-16.319,0-29.24,13.791-28.178,30.075l1.156,17.715 C395.432,289.485,406.36,268.775,406.36,268.775z"/> <path style="fill:#FFE6B8;" d="M414.448,279.56c-10.785-5.572-8.088-10.785-8.088-10.785s-10.926,20.709-51.883,22.987l2.698,41.368 c0.831,12.744,8.107,24.183,19.298,30.338l0,0c11.223,6.173,24.826,6.173,36.049,0l0,0c11.191-6.155,18.467-17.594,19.298-30.338 l3.083-47.272C426.894,284.037,418.838,281.828,414.448,279.56z"/> <path style="fill:#BCC987;" d="M497.495,447.796c-4.618-25.489-24.514-44.93-49.209-49.579c-3.717-0.7-7.54-1.068-11.437-1.068 h-12.965l-29.386,29.386l-29.386-29.386h-12.965c-3.898,0-7.722,0.368-11.438,1.068c-24.696,4.65-44.592,24.091-49.209,49.579 l-4.305,23.764H501.8L497.495,447.796z"/> <polygon style="fill:#FFAD61;" points="270.83,40.439 34.568,40.439 34.568,178.514 185.428,178.514 185.428,223.516 230.43,178.514 270.83,178.514 "/> <g> <path style="fill:#4D3D36;" d="M310.162,247.093c1.952,1.951,4.56,2.987,7.214,2.987c1.314,0,2.64-0.255,3.901-0.777 c3.811-1.579,6.296-5.297,6.296-9.423v-23.49h102.735c5.633,0,10.199-4.566,10.199-10.199V102.829 c0-5.633-4.566-10.199-10.199-10.199H281.029v-52.19c0-5.633-4.566-10.199-10.199-10.199H34.569 c-5.633,0-10.199,4.566-10.199,10.199v138.074c0,5.633,4.566,10.199,10.199,10.199h140.66v34.803c0,4.125,2.486,7.844,6.296,9.423 c1.262,0.523,2.587,0.777,3.901,0.777c2.654,0,5.263-1.037,7.214-2.987l42.015-42.015h8.589v17.478 c0,5.633,4.566,10.199,10.199,10.199h26.018L310.162,247.093z M230.43,168.315c-2.705,0-5.3,1.075-7.212,2.987l-27.591,27.591 v-20.379c0-5.633-4.566-10.199-10.199-10.199H44.768V50.639H260.63v117.675H230.43V168.315z M263.641,188.713h7.187 c5.633,0,10.199-4.566,10.199-10.199v-65.486h139.08v82.964H317.374c-5.633,0-10.199,4.566-10.199,10.199v9.066l-16.277-16.278 c-1.912-1.912-4.507-2.987-7.212-2.987h-20.043L263.641,188.713L263.641,188.713z"/> <path style="fill:#4D3D36;" d="M307.649,149.014h85.959c5.633,0,10.199-4.566,10.199-10.199c0-5.633-4.566-10.199-10.199-10.199 h-85.959c-5.633,0-10.199,4.566-10.199,10.199C297.45,144.448,302.016,149.014,307.649,149.014z"/> <path style="fill:#4D3D36;" d="M307.649,179.64h85.959c5.633,0,10.199-4.566,10.199-10.199s-4.566-10.199-10.199-10.199h-85.959 c-5.633,0-10.199,4.566-10.199,10.199S302.016,179.64,307.649,179.64z"/> <path style="fill:#4D3D36;" d="M70.001,333.795c1.064,16.303,10.245,30.737,24.561,38.61c7.182,3.951,15.06,5.926,22.94,5.926 c7.878,0,15.759-1.976,22.939-5.926c14.316-7.873,23.497-22.308,24.561-38.61l3.083-47.272v-0.001l0.77-11.811 c0.688-10.564-3.067-21.055-10.305-28.781c-7.239-7.726-17.463-12.157-28.05-12.157h-25.995c-10.587,0-20.81,4.432-28.049,12.157 c-7.239,7.726-10.996,18.216-10.306,28.781l1.156,17.715L70.001,333.795z M130.611,354.532c-8.209,4.515-18.01,4.515-26.219,0 c-8.181-4.5-13.427-12.748-14.035-22.065l-2.054-31.503c19.356-2.663,31.783-9.313,39.425-15.428 c1.496,1.093,3.178,2.122,5.044,3.085c3.284,1.697,8.04,3.379,14.402,5.093l-2.527,38.753 C144.038,341.784,138.792,350.032,130.611,354.532z M142.134,270.499c-0.892-0.461-1.564-0.871-2.068-1.215l3.546-9.457 c0.016,0.017,0.035,0.032,0.051,0.049c3.334,3.559,5.051,8.163,4.862,13.014C144.966,271.801,143.089,270.992,142.134,270.499z M91.34,259.876c3.447-3.679,8.122-5.705,13.164-5.705h19.444l-3.805,10.147c-1.341,1.919-9.789,12.567-33.173,16.218l-0.466-7.153 C86.175,268.353,87.893,263.556,91.34,259.876z"/> <path style="fill:#4D3D36;" d="M230.536,445.978C230.536,445.977,230.536,445.977,230.536,445.978 c-5.271-29.095-28.321-52.317-57.357-57.785c-4.386-0.826-8.869-1.244-13.325-1.244h-12.965c-2.705,0-5.299,1.075-7.212,2.987 l-22.173,22.174l-22.175-22.175c-1.912-1.912-4.507-2.987-7.212-2.987H75.151c-4.457,0-8.94,0.419-13.324,1.244 c-29.036,5.467-52.087,28.688-57.358,57.785l-4.305,23.764c-0.539,2.975,0.27,6.035,2.208,8.355s4.805,3.662,7.828,3.662h214.607 c3.023,0,5.89-1.341,7.828-3.662c1.938-2.32,2.747-5.381,2.208-8.355L230.536,445.978z M22.411,461.361l2.128-11.746 c3.775-20.834,20.276-37.461,41.061-41.374c3.143-0.592,6.357-0.892,9.551-0.892h8.741l26.399,26.399 c1.912,1.912,4.507,2.987,7.212,2.987s5.3-1.075,7.212-2.987l26.398-26.399h8.741c3.193,0,6.407,0.3,9.551,0.892 c20.785,3.913,37.286,20.541,41.061,41.374l2.128,11.747H22.411V461.361z"/> <path style="fill:#4D3D36;" d="M407.494,233.772h-25.995c-10.588,0-20.811,4.432-28.05,12.157 c-7.238,7.727-10.995,18.217-10.305,28.781l1.156,17.715l2.698,41.369c1.064,16.303,10.245,30.737,24.561,38.61 c7.182,3.951,15.06,5.926,22.94,5.926c7.878,0,15.759-1.976,22.939-5.926c14.316-7.873,23.497-22.308,24.561-38.61l3.082-47.272 l0.77-11.812c0.688-10.565-3.068-21.056-10.306-28.782C428.304,238.204,418.082,233.772,407.494,233.772z M419.129,270.499 c-0.892-0.461-1.564-0.871-2.068-1.215l3.546-9.457c0.016,0.017,0.034,0.032,0.05,0.048c3.334,3.56,5.051,8.164,4.863,13.015 C421.961,271.801,420.085,270.992,419.129,270.499z M368.335,259.876c3.447-3.679,8.123-5.705,13.164-5.705h19.444l-3.805,10.147 c-1.341,1.919-9.789,12.567-33.173,16.218l-0.466-7.153C363.171,268.353,364.889,263.556,368.335,259.876z M407.606,354.532 c-8.209,4.515-18.01,4.515-26.219,0c-8.181-4.5-13.427-12.748-14.035-22.065l-2.054-31.503 c19.356-2.663,31.783-9.313,39.425-15.428c1.496,1.093,3.178,2.122,5.042,3.085c3.284,1.696,8.039,3.378,14.402,5.093 l-2.527,38.753C421.034,341.784,415.788,350.032,407.606,354.532z"/> <path style="fill:#4D3D36;" d="M511.836,469.741l-4.305-23.764l0,0c-5.271-29.095-28.322-52.317-57.358-57.784 c-4.386-0.826-8.868-1.244-13.325-1.244h-12.965c-2.705,0-5.3,1.075-7.212,2.987l-22.174,22.174l-22.173-22.174 c-1.912-1.912-4.507-2.987-7.212-2.987h-12.965c-4.457,0-8.941,0.419-13.325,1.244c-29.036,5.467-52.086,28.688-57.357,57.785 l-4.305,23.764c-0.539,2.975,0.27,6.035,2.208,8.355s4.805,3.661,7.828,3.661H501.8c3.023,0,5.89-1.341,7.828-3.661 C511.566,475.776,512.374,472.716,511.836,469.741z M299.407,461.361l2.128-11.746c3.775-20.834,20.275-37.461,41.061-41.374 c3.144-0.592,6.357-0.892,9.551-0.892h8.741l26.398,26.399c1.912,1.912,4.507,2.987,7.212,2.987s5.3-1.075,7.212-2.987 l26.399-26.399h8.741c3.193,0,6.407,0.3,9.551,0.892c20.785,3.913,37.287,20.541,41.061,41.374l2.128,11.747h-190.18V461.361z"/> <path style="fill:#4D3D36;" d="M227.873,78.311h-6.137c-5.633,0-10.199,4.566-10.199,10.199c0,5.633,4.566,10.199,10.199,10.199 h6.137c5.633,0,10.199-4.566,10.199-10.199C238.072,82.877,233.506,78.311,227.873,78.311z"/> <path style="fill:#4D3D36;" d="M77.525,98.709H185.94c5.633,0,10.199-4.566,10.199-10.199c0-5.633-4.566-10.199-10.199-10.199 H77.525c-5.633,0-10.199,4.566-10.199,10.199C67.326,94.143,71.892,98.709,77.525,98.709z"/> <path style="fill:#4D3D36;" d="M227.873,119.222H77.525c-5.633,0-10.199,4.566-10.199,10.199c0,5.633,4.566,10.199,10.199,10.199 h150.347c5.633,0,10.199-4.566,10.199-10.199C238.072,123.788,233.506,119.222,227.873,119.222z"/> </g> </g>
</svg>