<!DOCTYPE svg PUBLIC "-//W3C//DTD SVG 1.1//EN" "http://www.w3.org/Graphics/SVG/1.1/DTD/svg11.dtd">
<!-- Uploaded to: SVG Repo, www.svgrepo.com, Transformed by: SVG Repo Mixer Tools -->
<svg height="256px" width="256px" version="1.1" id="Layer_1" xmlns="http://www.w3.org/2000/svg" xmlns:xlink="http://www.w3.org/1999/xlink" viewBox="0 0 512 512" xml:space="preserve" fill="#000000">
<g id="SVGRepo_bgCarrier" stroke-width="0"/>
<g id="SVGRepo_tracerCarrier" stroke-linecap="round" stroke-linejoin="round"/>
<g id="SVGRepo_iconCarrier"> <circle style="fill:#FFAD61;" cx="345.716" cy="165.132" r="154.932"/> <g> <path style="fill:#D35B38;" d="M213.087,345.502L66.178,492.411c-12.547,12.547-32.889,12.547-45.436,0l0,0 c-12.547-12.547-12.547-32.889,0-45.436l146.909-146.909L213.087,345.502z"/> <circle style="fill:#D35B38;" cx="254.286" cy="198.954" r="19.712"/> <circle style="fill:#D35B38;" cx="357.772" cy="239.354" r="19.712"/> <circle style="fill:#D35B38;" cx="422.927" cy="101.66" r="19.712"/> <circle style="fill:#D35B38;" cx="297.645" cy="136.858" r="19.712"/> </g> <g> <path style="fill:#4D3D36;" d="M345.72,0c-91.052,0-165.128,74.077-165.128,165.128c0,42.226,15.939,80.794,42.107,110.023 L189.93,307.92l-15.067-15.067c-3.984-3.982-10.44-3.982-14.425,0L13.53,439.762c-16.503,16.504-16.503,43.356,0.001,59.86 C21.782,507.874,32.621,512,43.46,512s21.678-4.126,29.931-12.377L220.3,352.714c3.983-3.983,3.983-10.441,0-14.425l-15.944-15.944 l32.854-32.854c29.04,25.372,67.009,40.765,108.51,40.765c91.053,0,165.128-74.077,165.128-165.128S436.773,0,345.72,0z M58.966,485.198c-8.551,8.549-22.463,8.548-31.012,0.001c-8.55-8.551-8.55-22.463,0-31.012l139.697-139.697l31.011,31.011 L58.966,485.198z M345.72,309.857c-79.803,0-144.728-64.925-144.728-144.728S265.917,20.399,345.72,20.399 c79.804,0,144.728,64.925,144.728,144.728S425.524,309.857,345.72,309.857z"/> <path style="fill:#4D3D36;" d="M405.678,137.647c-5.097-2.402-11.173-0.217-13.575,4.878l-1.526,3.238 c-2.401,5.096-0.217,11.173,4.878,13.575c1.405,0.662,2.884,0.975,4.341,0.975c3.826,0,7.495-2.163,9.234-5.854l1.526-3.238 C412.959,146.126,410.774,140.049,405.678,137.647z"/> <path style="fill:#4D3D36;" d="M391.263,168.246c-5.096-2.401-11.173-0.216-13.574,4.881l-17.17,36.452 c-0.907-0.084-1.824-0.132-2.752-0.132c-1.81,0-3.58,0.17-5.302,0.48l-31.548-54.304c4.15-5.136,6.642-11.663,6.642-18.765 c0-16.494-13.418-29.911-29.911-29.911c-16.494,0-29.911,13.418-29.911,29.911c0,6.265,1.939,12.081,5.244,16.893L261.81,170 c-2.405-0.626-4.927-0.96-7.526-0.96c-16.494,0-29.911,13.418-29.911,29.911c0,16.493,13.418,29.91,29.911,29.91 c16.493,0,29.91-13.418,29.91-29.91c0-6.477-2.076-12.474-5.588-17.376l10.949-15.926c2.576,0.725,5.289,1.122,8.093,1.122 c1.992,0,3.937-0.2,5.821-0.573l31.365,53.988c-4.351,5.196-6.977,11.883-6.977,19.173c0,16.494,13.418,29.911,29.91,29.911 c16.494,0,29.911-13.418,29.911-29.911c0-8.215-3.33-15.665-8.709-21.075l17.175-36.463 C398.546,176.724,396.36,170.647,391.263,168.246z M254.283,208.462c-5.246,0-9.512-4.268-9.512-9.511 c0-5.246,4.268-9.512,9.512-9.512c5.245,0,9.511,4.268,9.511,9.512C263.794,204.194,259.527,208.462,254.283,208.462z M288.136,136.858c0-5.246,4.267-9.512,9.512-9.512c5.245,0,9.512,4.268,9.512,9.512c0,5.245-4.267,9.512-9.512,9.512 C292.403,146.37,288.136,142.103,288.136,136.858z M357.769,248.87c-5.245,0-9.511-4.268-9.511-9.512 c0-5.245,4.268-9.511,9.511-9.511c5.246,0,9.512,4.268,9.512,9.511C367.281,244.603,363.013,248.87,357.769,248.87z"/> <path style="fill:#4D3D36;" d="M422.931,71.753c-16.493,0-29.91,13.418-29.91,29.91c0,16.494,13.418,29.911,29.91,29.911 c16.494,0,29.911-13.418,29.911-29.911C452.842,85.171,439.425,71.753,422.931,71.753z M422.931,111.176 c-5.245,0-9.511-4.268-9.511-9.512c0-5.245,4.268-9.511,9.511-9.511c5.246,0,9.512,4.268,9.512,9.511 C432.443,106.908,428.176,111.176,422.931,111.176z"/> </g> </g>
</svg>