<!DOCTYPE svg PUBLIC "-//W3C//DTD SVG 1.1//EN" "http://www.w3.org/Graphics/SVG/1.1/DTD/svg11.dtd">
<!-- Uploaded to: SVG Repo, www.svgrepo.com, Transformed by: SVG Repo Mixer Tools -->
<svg fill="#800000" height="215px" width="215px" version="1.1" xmlns="http://www.w3.org/2000/svg" viewBox="0 0 470.00 470.00" xmlns:xlink="http://www.w3.org/1999/xlink" enable-background="new 0 0 470 470" transform="matrix(1, 0, 0, 1, 0, 0)" stroke="#800000" stroke-width="0.0047">
<g id="SVGRepo_bgCarrier" stroke-width="0"/>
<g id="SVGRepo_tracerCarrier" stroke-linecap="round" stroke-linejoin="round"/>
<g id="SVGRepo_iconCarrier"> <g> <path d="m462.5,379.824h-430c-4.142,0-7.5,3.357-7.5,7.5s3.358,7.5 7.5,7.5h4.343l4.325,15.138c3.182,11.138 14.748,19.862 26.332,19.862h360c11.584,0 23.15-8.725 26.332-19.862l4.325-15.138h4.343c4.142,0 7.5-3.357 7.5-7.5s-3.358-7.5-7.5-7.5zm-23.091,26.016c-1.343,4.702-7.02,8.983-11.909,8.983h-360c-4.89,0-10.566-4.281-11.909-8.983l-3.148-11.017h390.114l-3.148,11.017z"/> <path d="m87.5,318.474h40.632c31.729,32.271 73.988,50 119.367,50 92.36,0 167.5-75.141 167.5-167.5v-80c0-4.143-3.358-7.5-7.5-7.5h-23.012c-3.682-27.681-27.427-49.111-56.099-49.111-10.561,0-20.776,2.922-29.623,8.366-9.162-19.599-28.947-32.553-51.266-32.553s-42.104,12.954-51.266,32.553c-8.847-5.444-19.062-8.366-29.623-8.366-28.672,0-52.417,21.43-56.099,49.111h-23.012c-4.142,0-7.5,3.357-7.5,7.5v22.814c-20.544,1.732-39.627,10.567-54.372,25.313-16.526,16.527-25.627,38.501-25.627,61.873 0,23.372 9.102,45.345 25.628,61.872 16.528,16.527 38.501,25.628 61.872,25.628zm282.499-117.5c0,17.316-3.543,34.017-10.381,49.426h-224.194c-6.697-15.126-10.426-31.847-10.426-49.426v-12.204c9.816,0.83 15.565,3.307 22.031,6.092 8.282,3.568 17.67,7.612 35.466,7.612 17.796,0 27.184-4.044 35.467-7.612 7.957-3.428 14.829-6.388 29.532-6.388 14.704,0 21.576,2.96 29.534,6.388 8.283,3.568 17.671,7.612 35.468,7.612s27.185-4.044 35.468-7.612c6.466-2.785 12.216-5.262 22.034-6.092v12.204zm.001-27.229c-13.09,0.95-20.937,4.312-27.968,7.341-7.958,3.428-14.83,6.388-29.534,6.388s-21.576-2.96-29.534-6.388c-8.283-3.568-17.671-7.612-35.468-7.612-17.796,0-27.184,4.044-35.467,7.612-7.957,3.428-14.829,6.388-29.532,6.388-14.703,0-21.574-2.96-29.531-6.388-7.03-3.029-14.877-6.391-27.966-7.341v-45.271h245v45.271zm-203.389-94.382c10.465,0 20.469,3.904 28.169,10.993 1.948,1.794 4.699,2.427 7.23,1.667 2.536-0.759 4.483-2.798 5.125-5.365 4.635-18.536 21.233-31.481 40.364-31.481s35.729,12.945 40.364,31.481c0.642,2.567 2.59,4.606 5.125,5.365 2.535,0.758 5.283,0.125 7.23-1.667 7.7-7.089 17.704-10.993 28.169-10.993 20.383,0 37.378,14.736 40.921,34.111h-243.62c3.545-19.375 20.54-34.111 40.923-34.111zm-130.376,100.345c13.692-13.693 31.898-21.234 51.265-21.234 4.142,0 7.5-3.357 7.5-7.5v-22.5h15v72.5c0,75.817 61.682,137.5 137.5,137.5 31.29,0 60.794-10.287 85.324-29.75 3.245-2.574 3.788-7.292 1.214-10.537-2.575-3.246-7.293-3.787-10.537-1.213-21.85,17.336-48.13,26.5-76,26.5-43.926,0-82.52-23.244-104.145-58.074h208.285c-2.479,3.975-5.181,7.844-8.142,11.575-2.574,3.244-2.031,7.962 1.214,10.536 3.245,2.576 7.962,2.031 10.537-1.214 19.462-24.529 29.75-54.033 29.75-85.323v-72.5h15v72.5c0,84.089-68.411,152.5-152.5,152.5-42.303,0-81.63-16.925-110.737-47.657-1.417-1.496-3.385-2.343-5.445-2.343h-43.817c-19.364,0-37.571-7.541-51.265-21.235-13.693-13.694-21.235-31.9-21.235-51.265 0-19.366 7.541-37.572 21.234-51.266z"/> <path d="m87.5,288.474h21.409c2.681,0 5.157-1.431 6.497-3.753s1.338-5.183-0.004-7.503c-13.348-23.073-20.403-49.438-20.403-76.244v-20c0-4.143-3.358-7.5-7.5-7.5-15.359,0-29.799,5.981-40.658,16.841-10.86,10.86-16.841,25.3-16.841,40.659 0,15.358 5.981,29.798 16.842,40.659 10.861,10.861 25.3,16.841 40.658,16.841zm-30.052-87.553c6.229-6.229 14.053-10.287 22.551-11.792v11.845c0,25.167 5.667,49.987 16.473,72.5h-8.972c-11.352,0-22.024-4.421-30.052-12.447-8.027-8.028-12.448-18.701-12.448-30.053 0-11.352 4.42-22.025 12.448-30.053z"/> </g> </g>
</svg>