<!DOCTYPE svg PUBLIC "-//W3C//DTD SVG 1.1//EN" "http://www.w3.org/Graphics/SVG/1.1/DTD/svg11.dtd">
<!-- Uploaded to: SVG Repo, www.svgrepo.com, Transformed by: SVG Repo Mixer Tools -->
<svg height="256px" width="256px" version="1.1" id="Layer_1" xmlns="http://www.w3.org/2000/svg" xmlns:xlink="http://www.w3.org/1999/xlink" viewBox="0 0 512.001 512.001" xml:space="preserve" fill="#000000">
<g id="SVGRepo_bgCarrier" stroke-width="0"/>
<g id="SVGRepo_tracerCarrier" stroke-linecap="round" stroke-linejoin="round"/>
<g id="SVGRepo_iconCarrier"> <circle style="fill:#FFAD61;" cx="256.001" cy="189.063" r="178.863"/> <path style="fill:#FFE6B8;" d="M283.97,464.492h-60.328c-17.278,0-31.286-14.008-31.286-31.286v-74.057h122.9v74.057 C315.256,450.485,301.249,464.492,283.97,464.492z"/> <path style="fill:#D35B38;" d="M279.045,464.492h-50.477v12.071c0,13.939,11.3,25.239,25.239,25.239l0,0 c13.939,0,25.239-11.3,25.239-25.239v-12.071H279.045z"/> <g> <path style="fill:#4D3D36;" d="M445.064,189.064C445.064,84.814,360.251,0,256.001,0S66.937,84.814,66.937,189.064 c0,78.063,47.557,145.223,115.219,174.041v70.101c0,21.088,15.819,38.538,36.211,41.138v2.218 c0,19.541,15.898,35.438,35.438,35.438s35.438-15.898,35.438-35.438v-2.218c20.392-2.601,36.211-20.051,36.211-41.138V364.91 C395.441,337.17,445.064,268.804,445.064,189.064z M268.845,476.562c0,8.293-6.747,15.04-15.04,15.04 c-8.293,0-15.04-6.747-15.04-15.04v-1.872h30.078v1.872H268.845z M223.641,454.292c-8.995,0-16.671-5.672-19.696-13.619h43.276 c5.633,0,10.199-4.566,10.199-10.199c0-5.633-4.566-10.199-10.199-10.199h-44.667v-15.813h44.667 c5.633,0,10.199-4.566,10.199-10.199s-4.566-10.199-10.199-10.199h-44.667v-13.642c16.955,5.006,34.89,7.705,53.446,7.705 c16.962,0,33.404-2.258,49.056-6.467v61.547c0,11.627-9.46,21.087-21.087,21.087h-60.328V454.292z M256.001,357.728 c-6.581,0-13.071-0.392-19.458-1.129c0.07-0.97,0.007-1.964-0.216-2.962l-33.443-149.985h16.904c2.705,0,5.299-1.075,7.212-2.987 l10.894-10.894l32.841,32.84c3.983,3.983,10.441,3.983,14.424,0l18.958-18.959h4.999l-19.252,86.34 c-1.226,5.498,2.237,10.949,7.735,12.175c5.499,1.226,10.948-2.237,12.175-7.735l22.021-98.759c0.674-3.02-0.061-6.184-1.997-8.599 c-1.936-2.415-4.863-3.821-7.958-3.821h-21.947c-2.705,0-5.3,1.075-7.212,2.987l-14.734,14.735l-32.841-32.84 c-1.912-1.912-4.507-2.987-7.212-2.987s-5.299,1.075-7.212,2.987l-15.118,15.118H190.16c-3.095,0-6.023,1.405-7.958,3.821 c-1.936,2.415-2.67,5.578-1.997,8.599l35.02,157.062C141.858,334.451,87.333,268.01,87.333,189.064 c0.002-93.002,75.665-168.665,168.667-168.665s168.665,75.663,168.665,168.665S349.003,357.728,256.001,357.728z"/> <path style="fill:#4D3D36;" d="M295.434,311.886c-5.501-1.23-10.949,2.237-12.175,7.734l-1.468,6.583 c-1.226,5.497,2.237,10.949,7.734,12.175c0.748,0.167,1.494,0.247,2.23,0.247c4.672,0,8.886-3.231,9.945-7.981l1.468-6.583 C304.394,318.563,300.931,313.112,295.434,311.886z"/> </g> </g>
</svg>