<!DOCTYPE svg PUBLIC "-//W3C//DTD SVG 1.1//EN" "http://www.w3.org/Graphics/SVG/1.1/DTD/svg11.dtd">
<!-- Uploaded to: SVG Repo, www.svgrepo.com, Transformed by: SVG Repo Mixer Tools -->
<svg height="256px" width="256px" version="1.1" id="Layer_1" xmlns="http://www.w3.org/2000/svg" xmlns:xlink="http://www.w3.org/1999/xlink" viewBox="0 0 511.999 511.999" xml:space="preserve" fill="#000000">
<g id="SVGRepo_bgCarrier" stroke-width="0"/>
<g id="SVGRepo_tracerCarrier" stroke-linecap="round" stroke-linejoin="round"/>
<g id="SVGRepo_iconCarrier"> <path style="fill:#D35B38;" d="M287.619,113.023c0,0-5.598,10.824,16.796,22.395c9.118,4.711,25.846,9.298,42.477,13.082 l1.599-24.528c2.205-33.816-24.628-62.457-58.516-62.457h-53.981c-33.888,0-60.722,28.64-58.516,62.457l2.399,36.788 C264.928,156.029,287.619,113.023,287.619,113.023z"/> <path style="fill:#FFE6B8;" d="M304.415,135.419c-22.395-11.571-16.796-22.395-16.796-22.395s-22.69,43.006-107.742,47.736 l5.602,85.907c1.726,26.465,16.837,50.22,40.075,63.001l0,0c23.307,12.819,51.554,12.819,74.861,0l0,0 c23.238-12.781,38.349-36.537,40.075-63.001l6.402-98.166C330.261,144.716,313.533,140.13,304.415,135.419z"/> <path style="fill:#BCC987;" d="M476.874,452.452c-9.589-52.932-50.905-93.302-102.19-102.959L262.984,461.194l-111.7-111.701 C100,359.15,58.684,399.52,49.094,452.452l-8.94,49.349h445.659L476.874,452.452z"/> <g> <path style="fill:#FFE6B8;" d="M374.685,349.493c-7.717-1.453-15.658-2.217-23.752-2.217h-26.925l-61.024,61.023l-61.023-61.023 h-26.924c-8.094,0-16.035,0.765-23.752,2.217l111.7,111.7L374.685,349.493z"/> </g> <g> <circle style="fill:#FFAD61;" cx="129.529" cy="113.538" r="103.338"/> <polyline style="fill:#FFAD61;" points="72.457,146.957 104.332,115.081 125.925,136.674 184.536,78.064 150.604,78.064 "/> </g> <g> <path style="fill:#4D3D36;" d="M495.85,499.982l-8.941-49.349c-5.045-27.848-18.284-53.128-38.287-73.106 c-19.769-19.744-44.682-32.904-72.046-38.056c-0.001,0-0.003-0.001-0.004-0.001c-8.434-1.589-17.06-2.394-25.642-2.394h-26.923 c-2.705,0-5.298,1.075-7.212,2.987l-53.811,53.811l-53.812-53.811c-1.913-1.912-4.507-2.987-7.212-2.987h-26.924 c-8.578,0-17.204,0.806-25.64,2.394c-27.367,5.153-52.282,18.313-72.051,38.057c-20.003,19.978-33.243,45.258-38.288,73.106 l-8.94,49.348c-0.539,2.975,0.27,6.035,2.207,8.356c1.938,2.32,4.806,3.662,7.829,3.662h445.659c3.023,0,5.89-1.341,7.829-3.662 C495.58,506.018,496.389,502.957,495.85,499.982z M328.232,357.475h22.699c0.447,0,0.893,0.002,1.339,0.007l-89.287,89.287 l-12.023-12.023l19.23-19.231c0.002-0.002,0.003-0.003,0.005-0.005L328.232,357.475z M175.036,357.475h22.699l50.825,50.824 l-12.023,12.023l-62.839-62.839C174.144,357.478,174.59,357.475,175.036,357.475z M52.368,491.602l6.762-37.331 c8.328-45.964,43.709-82.989,88.853-93.653l107.789,107.788c1.992,1.991,4.602,2.987,7.212,2.987c2.611,0,5.22-0.996,7.212-2.987 l107.789-107.788c45.145,10.665,80.526,47.689,88.852,93.653l6.763,37.331H52.368z"/> <path style="fill:#4D3D36;" d="M129.524,227.077c15.548,0,30.374-3.144,43.881-8.825l1.896,29.078 c1.962,30.095,18.911,56.739,45.336,71.274c13.258,7.291,27.802,10.938,42.346,10.938c14.545,0,29.089-3.646,42.347-10.938 c26.425-14.535,43.374-41.179,45.336-71.274l6.402-98.166l1.599-24.528c1.252-19.2-5.303-37.506-18.458-51.547 c-13.154-14.041-30.995-21.773-50.236-21.773h-53.981c-3.688,0-7.355,0.3-10.969,0.878C204.799,20.819,169.548,0,129.524,0 C66.918,0,15.986,50.933,15.986,113.539S66.918,227.077,129.524,227.077z M295.499,300.731c-20.359,11.198-44.67,11.198-65.031,0 c-20.291-11.16-33.305-31.62-34.813-54.729l-2.509-38.471c16.694-11.335,30.219-26.999,38.96-45.362 c25.755-7.941,42.171-19.612,51.999-28.999c3.781,4.105,9.003,7.887,15.627,11.31c7.528,3.89,19.498,7.823,36.419,11.965 l-5.841,89.558C328.804,269.111,315.79,289.571,295.499,300.731z M325.326,87.036c9.257,9.88,13.87,22.762,12.989,36.271 l-0.812,12.45c-16.299-4.146-24.399-7.33-28.407-9.401c-9.085-4.695-11.595-8.609-11.871-9.902l14.799-39.464 C316.926,79.503,321.421,82.87,325.326,87.036z M235.994,71.714h53.981c0.744,0,1.484,0.023,2.221,0.056l-13.828,36.876 c-1.749,2.859-11.664,17.429-37.83,28.729c1.649-7.689,2.525-15.662,2.525-23.837c0-14.751-2.83-28.853-7.972-41.794 C235.393,71.739,235.692,71.714,235.994,71.714z M129.524,20.398c51.357,0,93.14,41.782,93.14,93.14 c0,51.357-41.783,93.14-93.14,93.14s-93.14-41.782-93.14-93.14C36.384,62.18,78.167,20.398,129.524,20.398z"/> <path style="fill:#4D3D36;" d="M72.457,157.155c2.611,0,5.22-0.995,7.212-2.987l24.664-24.664l14.382,14.382 c3.984,3.983,10.44,3.982,14.425,0l41.2-41.2v7.253c0,5.633,4.567,10.199,10.199,10.199s10.199-4.566,10.199-10.199V78.064 c0,0-0.011-0.002-0.024-0.004c0-1.314-0.228-2.638-0.752-3.899c-1.579-3.811-5.297-6.296-9.423-6.296h-33.934 c-5.632,0-10.199,4.566-10.199,10.199c0,5.633,4.567,10.199,10.199,10.199h9.31l-33.987,33.988l-14.382-14.382 c-3.984-3.983-10.44-3.982-14.425,0l-31.876,31.876c-3.983,3.983-3.983,10.441,0,14.425 C67.237,156.16,69.846,157.155,72.457,157.155z"/> <path style="fill:#4D3D36;" d="M403.553,460.657h-67.865c-5.632,0-10.199,4.566-10.199,10.199c0,5.633,4.567,10.199,10.199,10.199 h67.865c5.632,0,10.199-4.566,10.199-10.199C413.753,465.223,409.185,460.657,403.553,460.657z"/> <path style="fill:#4D3D36;" d="M445.713,460.657h-5.141c-5.632,0-10.199,4.566-10.199,10.199c0,5.633,4.567,10.199,10.199,10.199 h5.141c5.632,0,10.199-4.566,10.199-10.199C455.912,465.223,451.345,460.657,445.713,460.657z"/> </g> </g>
</svg>