<svg xmlns="http://www.w3.org/2000/svg" xmlns:xlink="http://www.w3.org/1999/xlink" viewBox="0 0 76 81" fill="#fff" fill-rule="evenodd" stroke="#000" stroke-linecap="round" stroke-linejoin="round"><use xlink:href="#A" x=".5" y=".5"/><symbol id="A" overflow="visible"><path d="M13.787 8.649l-3.309-3.243C7.721 3.784 4.963 2.703 4.963 2.703l-3.86-1.081C.551 2.703 0 3.244 0 4.865c0 4.865 1.654 5.946 1.654 5.946H14.89c-.551-.541-1.103-1.081-1.103-2.162zm2.206 67.027c1.103-1.081 1.654-2.703 1.654-4.865v-2.703h2.757 40.257v-2.703c0-14.054 12.684-34.595 12.684-50.811C73.346 1.622 60.662 0 60.662 0H15.441 5.515s9.926 2.162 12.132 10.811c.551 1.081.551 2.162.551 3.784 0 16.216-12.684 36.757-12.684 50.811 0 1.622 0 3.784.551 5.405s1.103 2.703 2.206 3.784c.551.54 1.103 1.081 2.206 1.622.551.541 1.654 1.081 2.206 1.081 1.103 0 2.206-.541 3.309-1.622zm4.411-4.324c0 2.703-1.103 5.405-2.206 6.487C16.544 79.46 13.235 80 13.235 80h54.044 1.654c1.654 0 3.309-1.081 4.412-2.703S75 73.514 75 70.811H61.213l-40.809.54h0z" fill="#0078d7" stroke="none"/><path d="M44.117 35.676s-.551-.541-1.103-.541l-1.103.541h-1.103l-.552-1.081s-.551-.541 0-1.081l.552-1.081c0-.541 0-.541-.552-.541L37.5 30.811c-.551 0-.551 0-.551.541l-1.103 1.081c0 .541-.551.541-.551.541h-1.103c-.552 0-1.103-.541-1.103-.541l-1.103-1.081c0-.541-.551-.541-.551-.541s-.552 0-1.103.541c-1.103 0-1.654.541-1.654.541s-.552.541-.552 1.081l.552 1.081v1.081l-.552 1.081s-.551.541-1.103 0l-1.654-.541c-.551 0-.551 0-.551.541l-1.103 2.703c0 .541 0 .541.551.541l1.103.541c.552 0 .552.541.552.541v1.081c0 .541 0 .541-.552 1.081l-1.103 1.081c-.551 0-.551.541-.551.541s0 .541.551 1.081.552 1.081.552 1.081.551.541 1.103.541l1.103-.541h1.103l1.103 1.081s.551.541 0 1.081v1.622c0 .541 0 .541.551.541l2.757 1.081c.552 0 .552 0 .552-.541l.551-1.081c0-.541.552-.541.552-.541h1.103c.551 0 .551 0 1.103.541l.552 1.081c0 .541.551.541.551.541s.552 0 1.103-.541c1.103 0 1.654-.541 1.654-.541s.552-.541.552-1.081l-.552-1.081v-1.081l1.103-1.081s.551-.541 1.103 0l1.103.541c.551 0 .551 0 .551-.541l1.103-2.703c0-.541 0-.541-.552-.541l-.551-.541c-.551 0-.551-.541-.551-.541v-1.081c0-.541 0-.541.551-1.081l1.103-.541c.551 0 .551-.541.551-.541s0-.541-.551-1.081c-.552-1.622-1.103-2.162-1.103-2.162zm-8.272 8.108c-1.654.541-3.309 0-3.86-1.622s0-3.243 1.654-3.784 3.309 0 3.86 1.622 0 3.243-1.654 3.784z" stroke="none"/><path d="M58.455 25.946l-.551-.541h-1.103c-.551 0-.551 0-.551-.541l-1.103-1.081v-.541l.551-1.081v-.541L54.044 20h-.551l-1.103.541h-.552L50.735 20l-.552-.541v-1.081c0-.541 0-.541-.551-.541h-1.103-1.103l-.551.541v1.081c0 .541 0 .541-.552.541l-1.103.541h-.551l-1.103-1.081h-.551l-2.206 2.162v.541l.552 1.081v.541 1.081l-.552.541h-1.103c-.551 0-.551 0-.551.541v1.081 1.081l.551.541h1.103c.552 0 .552 0 .552.541l.551 1.081v.541l-1.103 1.622v.541l1.654 1.622h.552l1.103-.541h.551l1.103.541.551.541v1.081c0 .541 0 .541.552.541h1.103 1.103l.552-.541v-1.081c0-.541 0-.541.551-.541l1.103-.541h.551l2.206.541h.551l1.654-1.622v-.541l-.552-1.081v-.541-1.622l.552-.541h1.103c.552 0 .552 0 .552-.541v-1.081c.551-.541.551-1.081.551-1.081zm-9.926 3.784c-1.654 0-2.757-1.081-2.757-2.703s1.103-2.703 2.757-2.703 2.757 1.081 2.757 2.703-1.103 2.703-2.757 2.703z" stroke="none"/></symbol></svg>