<?xml version="1.0" encoding="iso-8859-1"?>
<!-- Uploaded to: SVG Repo, www.svgrepo.com, Generator: SVG Repo Mixer Tools -->
<svg height="800px" width="800px" version="1.1" id="Layer_1" xmlns="http://www.w3.org/2000/svg" xmlns:xlink="http://www.w3.org/1999/xlink" 
	 viewBox="0 0 508 508" xml:space="preserve">
<circle style="fill:#324A5E;" cx="254" cy="254" r="254"/>
<g>
	<path style="fill:#F9B54C;" d="M401.2,164.8c2.8-24.8-6.4-56.4-9.2-66.4c18.4-1.6,39.2-3.6,58.8-6c18.8,22.8,33.6,49.2,43.6,77.6
		C472,168.4,436.8,165.6,401.2,164.8z"/>
	<path style="fill:#F9B54C;" d="M190,69.6c5.6,4.4,17.2,8.4,17.2,8.4c7.6,3.2,10.8-1.6,10.8-1.6c-1.2,0.8-7.6,0-7.6,0
		c-4.8,0-18.4-8-18.4-8c-10-7.6-17.6-4.8-17.6-4.8c0,1.2,0,1.6,0,1.6C182,64,190,69.6,190,69.6z"/>
	<path style="fill:#F9B54C;" d="M187.2,96c8.8,5.6,8.8,0,8.8,0c-2.8-4.8-19.2-8.4-19.2-8.4C164,84.8,166.4,74,166.4,74
		c-2.4,6-2,12.8-2,12.8c-2,0.4-4,0.8-5.6,1.2C171.6,85.6,187.2,96,187.2,96z"/>
	<path style="fill:#F9B54C;" d="M151.6,111.6c-2,0.4-4,1.2-5.2,1.6c6-2.4,24,4.4,24,4.4c8.4,6.4,14.4,7.2,14.4,7.2
		c0.4-7.6-16.4-11.6-16.4-11.6c-14.8-3.2-16.8-12.8-16.8-14.4c0.4,4.4,2.8,8,2.8,8C156.4,112,151.6,111.6,151.6,111.6z"/>
</g>
<g>
	<path style="fill:#FFD05B;" d="M425.2,236c0,0,0.4,0.4,0.8,1.2l-0.8,0.4c-6.8,2.4-54.4,29.6-54.4,29.6c-1.6-1.2-4.8-4.8-4.8-4.8
		c-0.4-0.4-5.2-5.6-6.8-7.2c-7.6-8-14.4-16.8-19.6-26.4c-2.8-4.8-6-10-10-13.2c-5.2-4-10.4-8.8-14.4-14c-6.8-9.2-15.6-22-16.8-27.6
		c0,0,6-2,8.4-4c0,0-10.4-53.6-10.8-60.8l-1.2-14.8c0,0,6-16.4,21.2-2.4c0,0,2.4,4,4.8,0c0,0,8-19.2,22.8-3.2
		c0,0,12.4-10.4,22.8-4.4c0,0,14.8-13.6,24.4,12c0,0,16,46.4,9.2,76C400,171.6,388.8,197.6,425.2,236z"/>
	<path style="fill:#FFD05B;" d="M498.8,324c-8.4,28.8-21.6,55.6-38.8,79.6c-8.4-14.8-20-34.4-32.8-55.6c22-10,41.2-24.8,41.2-24.8
		c21.2-17.2,3.6-26.8,3.6-26.8c0-1.2,0.4-2.4,0-3.2C480.8,303.2,490,314,498.8,324z"/>
</g>
<g>
	<path style="fill:#F9B54C;" d="M372,98.8c-0.8,7.2,2.8,18.8,2.8,18.8c1.6,8,7.6,7.6,7.6,7.6c-1.2-0.4-4.4-6.4-4.4-6.4
		c-2.8-4-3.6-19.6-3.6-19.6C374.8,86.4,368,82,368,82c-0.8,0.8-1.6,1.2-1.6,1.2C372.4,89.2,372,98.8,372,98.8z"/>
	<path style="fill:#F9B54C;" d="M348.8,111.6c0.4,10.4,4.8,7.2,4.8,7.2c2.4-4.8-4-20.4-4-20.4c-4.8-12,5.2-16,5.6-16.4
		c-6.4,1.6-11.6,5.6-11.6,5.6c-1.6-1.6-2.8-2.8-4-3.6C348.8,92.8,348.8,111.6,348.8,111.6z"/>
	<path style="fill:#F9B54C;" d="M316,91.2c-1.6-1.6-3.2-2.4-4.4-3.6c5.6,3.6,10,22.4,10,22.4c-0.4,10.4,2,16,2,16c6.4-3.6,0-20,0-20
		c-5.6-14,0.8-20.8,2-22c-3.2,2.8-4.8,6.8-4.8,6.8C318.4,95.2,316,91.2,316,91.2z"/>
	<path style="fill:#F9B54C;" d="M256.4,418.8c18,16.8,48.8,28.8,58.8,32c-10.8,17.2-22.4,36.8-33.2,55.6c-8.8,0.8-18,1.6-27.2,1.6
		c-23.2,0-45.2-3.2-66.4-8.8C202,484,230,452.4,256.4,418.8z"/>
	<path style="fill:#F9B54C;" d="M468.4,323.2c0,0-38.8,30-69.2,33.2c0,0-14-1.2-30.4,14.4l-4-2.4c-6-4.4-53.6-27.2-55.2-28
		c4.8-8.4,10-16,16.4-22.8c4-4,7.6-8.8,9.2-14c2-6.4,4.8-12.4,8.8-18c6.8-9.6,15.6-21.6,20.8-24.8c0,0,3.6,5.2,6.8,6.4
		c0,0,47.2-27.2,54.4-29.6l13.6-6c0,0,17.6,0.4,9.2,19.6c0,0-3.2,3.6,1.6,4.4c0,0,20.8,1.2,10.4,20.8c0,0,13.6,8.4,11.6,20.4
		C472,296.4,489.6,306,468.4,323.2z"/>
	<path style="fill:#F9B54C;" d="M366,262.4c-0.4-0.4-0.8-1.2-1.6-1.6l0,0C364.4,260.4,365.2,261.2,366,262.4z"/>
	<path style="fill:#F9B54C;" d="M371.2,267.2c-2.8-1.6-6.8-6.4-6.8-6.4c-1.6,1.2-4,3.2-6.4,6C360,280.4,371.2,267.2,371.2,267.2z"/>
</g>
<g>
	<path style="fill:#FFD05B;" d="M77.6,388c0.8,6,2,10,3.6,12.8c-10.8,0.8-21.6,1.6-32,2.4c-18-24.8-31.6-52.8-39.6-83.2
		c12.8,2,40,5.6,71.6,8.4C74.4,355.2,77.6,388,77.6,388z"/>
	<path style="fill:#FFD05B;" d="M366.4,394.8c0,0-4.8-0.4-2.8,4c0,0,10.8,18-11.2,20.4c0,0,0.8,16-10,20.8c0,0,2,20-24.4,12
		c0,0-46.8-14.8-66.4-38.4c0,0-14-24.8-66.4-18c0,0-4.4,0-12,0.4c1.6-12,4-60,4-60c2.8-1.6,9.2-2,9.2-2c0-0.4,0-0.8,0-1.2
		c8.4-0.4,16-0.8,23.2-2c10.8-1.2,22-1.6,32.8,0.4c5.6,0.8,11.6,1.2,16.8-0.4c6.4-2,13.2-3.2,20-3.2c11.6,0,26.8,0.8,32,2.8
		c0,0-2,6-1.6,9.2c0,0,49.2,23.6,55.2,28l12.8,8C377.2,376,386.8,390.8,366.4,394.8z"/>
</g>
<g>
	<path style="fill:#F9B54C;" d="M326.8,435.2c-5.2-4.8-16.8-8.8-16.8-8.8c-7.2-3.6-10.8,1.2-10.8,1.2c1.2-0.8,7.6,0.4,7.6,0.4
		c4.8,0,18,8.8,18,8.8c10,8,17.6,5.2,17.6,5.2c0-1.2,0-1.6,0-1.6C334.4,441.2,326.8,435.2,326.8,435.2z"/>
	<path style="fill:#F9B54C;" d="M330.4,408.8c-8.4-6-8.8-0.4-8.8-0.4c2.4,4.8,18.8,9.2,18.8,9.2c12.4,3.2,10,14,9.6,14
		c2.8-6,2.4-12.8,2.4-12.8c2-0.4,4-0.8,5.6-1.2C345.6,420,330.4,408.8,330.4,408.8z"/>
	<path style="fill:#F9B54C;" d="M366.4,394.8c2-0.4,4-0.8,5.6-1.6c-6.4,2.4-24-5.6-24-5.6c-8-6.4-14-8-14-8c-0.8,7.2,16,12,16,12
		c14.4,4,16.4,13.2,16.4,14.8c-0.4-4.4-2.4-8-2.4-8C362,394,366.4,394.8,366.4,394.8z"/>
</g>
<path style="fill:#FFD05B;" d="M309.2,340c1.6-2.4,5.2-8.4,5.2-8.4c-2-0.8-8.4-2-12-2.8C292,338.4,309.2,340,309.2,340z"/>
<g>
	<path style="fill:#F9B54C;" d="M110.8,158c-24,6-50.8,25.6-58.8,32c-7.6-15.6-16-33.2-24.8-50c14-27.6,32.8-52.4,55.2-73.2
		C88.8,88.8,98.8,123.2,110.8,158z"/>
	<path style="fill:#F9B54C;" d="M186.4,334.4c0,0-6.4,0.4-9.2,2c0,0-2.8,54.4-4.4,61.6l-2.4,14.8c0,0-10,14.8-21.2-2.4
		c0,0-1.2-4.4-4.8-1.2c0,0-12.4,16.8-23.2-2.4c0,0-14.4,7.2-23.2-1.2c0,0-17.6,9.6-20.8-17.6c0,0-4.4-49.2,9.2-76
		c0,0,8.4-11.2,4.4-33.2l4.4-2c6.8-2.8,51.6-30.4,53.2-31.6c4.4,8.4,8,17.2,10.4,26.4c1.2,5.6,3.6,11.2,6.8,15.2
		c4.4,5.2,8,10.8,10.4,17.2C180.8,314,186.4,328.4,186.4,334.4z"/>
	<path style="fill:#F9B54C;" d="M96.4,389.2c2.4-6.8,1.6-18.8,1.6-18.8c0.4-8-5.6-9.2-5.6-9.2c1.2,0.8,2.8,7.2,2.8,7.2
		c1.6,4.4-1.2,20-1.2,20c-3.6,12,2,18.4,2,18.4c1.2-0.4,1.6-0.8,1.6-0.8C94,398.8,96.4,389.2,96.4,389.2z"/>
	<path style="fill:#F9B54C;" d="M122,382.4c2-10.4-3.2-8-3.2-8c-3.6,4-1.2,20.8-1.2,20.8c2,12.8-8.8,14.4-9.2,14.4
		c6.8,0,12.8-2.8,12.8-2.8c1.2,2,2,3.2,3.2,4.8C117.6,400.8,122,382.4,122,382.4z"/>
	<path style="fill:#F9B54C;" d="M149.2,410c1.2,2,2.4,3.2,3.6,4.4c-4.4-4.8-4.4-24-4.4-24c2.8-10,1.6-16,1.6-16
		c-7.2,2-4.8,19.2-4.8,19.2c2,14.8-6,20-7.2,20.8c4-2,6.4-5.6,6.4-5.6C148,405.6,149.2,410,149.2,410z"/>
	<path style="fill:#F9B54C;" d="M177.2,336.4c2.8-1.6,9.2-2,9.2-2c0-2-0.8-5.2-1.6-8.4C172,319.6,177.2,336.4,177.2,336.4z"/>
</g>
<g>
	<path style="fill:#FFD05B;" d="M154.8,138c6,4,56.4,25.6,56.4,25.6l0,0c-0.4,0.4-0.4,1.2-0.8,1.6c-1.2,2.4-2.4,4.8-3.6,7.2
		c0,0,0,0.4-0.4,0.4c-4,6.8-8.4,13.6-13.6,19.6c-3.6,4.4-7.2,9.2-8.8,14.4c-2,6.4-4.4,12.8-8,18.4c-6.4,9.6-15.2,22.4-20,25.6
		c0,0-4-5.2-6.8-6.4c0,0-46.4,28.8-53.2,31.6l-14,6.8c0,0-17.6,0-10-19.2c0,0,2.8-3.6-2-4.4c0,0-20.8-0.8-11.2-20.4c0,0-14-8-12-20
		c0,0-18-9.2,2.8-27.2c0,0,38-31.6,68-35.6c0,0,16.4,0.8,34.4-20L154.8,138z"/>
	<path style="fill:#FFD05B;" d="M322,9.2c-13.2,15.6-36.8,44-60,75.2c-18-16.4-49.2-27.2-60.4-30.8c9.6-16.8,19.6-35.2,28.8-52.4
		c8-0.8,15.6-1.2,24-1.2C278,0,300.4,3.2,322,9.2z"/>
</g>
<g>
	<path style="fill:#F9B54C;" d="M59.6,208.4c6.8-2,16.4-9.2,16.4-9.2c6.8-4,4.8-9.6,4.8-9.6c0,1.2-4.4,6.4-4.4,6.4
		c-2.8,4-16.8,10.4-16.8,10.4c-12,4-14,12-14,12c0.8,0.8,1.6,0.8,1.6,0.8C50.4,211.6,59.6,208.4,59.6,208.4z"/>
	<path style="fill:#F9B54C;" d="M79.6,225.6c9.6-4,4.8-7.2,4.8-7.2c-5.2-0.4-17.6,10.8-17.6,10.8C57.2,238,50,230,49.6,230
		c3.6,5.6,9.6,8.8,9.6,8.8c-0.8,2-1.6,3.6-2,5.2C62,232.4,79.6,225.6,79.6,225.6z"/>
	<path style="fill:#F9B54C;" d="M72,263.6c-0.8,2-1.2,4-1.6,5.6C72,262.8,88,252,88,252c10-3.2,14.4-7.6,14.4-7.6
		c-5.6-4.8-18.8,6.8-18.8,6.8c-11.2,10.4-20,6.4-21.2,6c4,2,8,2,8,2C75.2,260,72,263.6,72,263.6z"/>
	<path style="fill:#F9B54C;" d="M148.8,244.8c1.2,2.8,4.4,8.8,4.4,8.8c1.6-1.2,6.4-6,8.8-8.8C159.6,231.2,148.8,244.8,148.8,244.8z"
		/>
	<path style="fill:#F9B54C;" d="M206.4,172.8c0,0,0,0.4-0.4,0.4l0,0C206,173.6,206,173.2,206.4,172.8z"/>
	<path style="fill:#F9B54C;" d="M210.8,164c-1.6,2.8-5.2,9.6-5.2,9.6c2,0.8,8.8,0.8,12.4,1.2C228.4,164.8,210.8,164,210.8,164z"/>
	<path style="fill:#F9B54C;" d="M302,181.6c-2-3.2-4.8-9.2-5.2-11.2c0,0,0.4,0,0.8,0c-6.4,0.4-12.8,0.4-19.2-0.4
		c-8-0.8-17.2-0.8-22,4c0,0-41.2,2.8-50.4-0.4c0,0,5.6-6.4,5.2-9.6c0,0-50-21.6-56.4-26l-12.8-7.2c0,0-10.4-14.4,10-19.2
		c0,0,4.8,0.4,2.8-4c0,0-11.6-17.6,10.4-20.8c0,0-1.6-16,9.2-21.2c0,0-2.8-20,24-13.2c0,0,47.6,13.2,68,35.6c0,0,7.2,12,29.6,16
		l0.4,4.8c0,7.2,10.4,59.2,10.8,60.8c-0.4,0-0.8,0-1.2,0c0.4,0,0.8,0,1.2,0C306.4,169.6,315.6,184.4,302,181.6z"/>
</g>
</svg>