<!DOCTYPE svg PUBLIC "-//W3C//DTD SVG 1.1//EN" "http://www.w3.org/Graphics/SVG/1.1/DTD/svg11.dtd">
<!-- Uploaded to: SVG Repo, www.svgrepo.com, Transformed by: SVG Repo Mixer Tools -->
<svg height="256px" width="256px" version="1.1" id="Layer_1" xmlns="http://www.w3.org/2000/svg" xmlns:xlink="http://www.w3.org/1999/xlink" viewBox="0 0 511.999 511.999" xml:space="preserve" fill="#000000">
<g id="SVGRepo_bgCarrier" stroke-width="0"/>
<g id="SVGRepo_tracerCarrier" stroke-linecap="round" stroke-linejoin="round"/>
<g id="SVGRepo_iconCarrier"> <path style="fill:#D35B38;" d="M410.738,167.199c0,0-2.572,4.973,7.717,10.289c4.19,2.164,11.875,4.272,19.516,6.01l0.735-11.269 c1.013-15.536-11.316-28.695-26.885-28.695H387.02c-15.57,0-27.899,13.159-26.885,28.695l1.103,16.902 C400.314,186.958,410.738,167.199,410.738,167.199z"/> <path style="fill:#FFE6B8;" d="M418.456,177.489c-10.289-5.316-7.717-10.289-7.717-10.289s-10.426,19.759-49.502,21.932l2.574,39.47 c0.792,12.159,7.735,23.074,18.413,28.946l0,0c10.709,5.89,23.687,5.89,34.395,0l0,0c10.677-5.873,17.619-16.787,18.413-28.946 l2.941-45.103C430.331,181.761,422.645,179.653,418.456,177.489z"/> <path style="fill:#BCC987;" d="M497.693,338.005c-4.406-24.319-23.389-42.867-46.951-47.305c-3.545-0.668-7.193-1.019-10.913-1.019 h-12.371l-28.038,28.038l-28.038-28.038h-12.371c-3.719,0-7.368,0.351-10.913,1.019c-23.563,4.437-42.546,22.985-46.951,47.305 l-4.107,22.674H501.8L497.693,338.005z"/> <path style="fill:#D35B38;" d="M123.896,167.199c0,0-2.572,4.973,7.717,10.289c4.19,2.164,11.875,4.272,19.516,6.01l0.735-11.269 c1.013-15.536-11.316-28.695-26.885-28.695h-24.802c-15.57,0-27.899,13.159-26.885,28.695l1.103,16.902 C113.471,186.958,123.896,167.199,123.896,167.199z"/> <path style="fill:#FFE6B8;" d="M131.614,177.489c-10.289-5.316-7.717-10.289-7.717-10.289s-10.426,19.759-49.502,21.932l2.574,39.47 c0.792,12.159,7.735,23.074,18.413,28.946l0,0c10.709,5.89,23.687,5.89,34.395,0l0,0c10.677-5.873,17.619-16.787,18.413-28.946 l2.941-45.103C143.489,181.761,135.803,179.653,131.614,177.489z"/> <path style="fill:#BCC987;" d="M210.85,338.005c-4.406-24.319-23.389-42.867-46.951-47.305c-3.545-0.668-7.193-1.019-10.913-1.019 h-12.371l-28.038,28.038L84.54,289.681h-12.37c-3.719,0-7.368,0.351-10.913,1.019c-23.563,4.437-42.546,22.985-46.951,47.305 l-4.108,22.674h204.759L210.85,338.005z"/> <path style="fill:#D35B38;" d="M271.047,147.928c0,0-3.458,6.685,10.374,13.831c5.631,2.91,15.963,5.742,26.233,8.079l0.988-15.149 c1.362-20.885-15.21-38.572-36.14-38.572h-33.338c-20.929,0-37.501,17.688-36.139,38.572l1.482,22.72 C257.033,174.489,271.047,147.928,271.047,147.928z"/> <path style="fill:#FFE6B8;" d="M281.42,161.759c-13.831-7.146-10.374-13.831-10.374-13.831s-14.014,26.56-66.541,29.482l3.46,53.055 c1.066,16.344,10.398,31.016,24.75,38.909l0,0c14.394,7.917,31.839,7.917,46.234,0l0,0c14.352-7.893,23.684-22.565,24.75-38.909 l3.954-60.627C297.382,167.501,287.052,164.669,281.42,161.759z"/> <path style="fill:#BCC987;" d="M387.93,365.408c-5.923-32.69-31.439-57.622-63.112-63.587l-68.985,68.985l-68.985-68.985 c-31.673,5.963-57.19,30.896-63.112,63.587l-5.521,30.477h275.237L387.93,365.408z"/> <path style="fill:#FFE6B8;" d="M324.818,301.821c-4.766-0.898-9.67-1.37-14.669-1.37h-22.532l-31.784,31.889l-32.471-31.889h-21.845 c-4.999,0-9.903,0.472-14.67,1.37l68.985,68.985L324.818,301.821z"/> <g> <path style="fill:#4D3D36;" d="M351.059,189.795L351.059,189.795l2.573,39.471c1.026,15.716,9.877,29.629,23.675,37.219 c6.924,3.808,14.517,5.712,22.113,5.712c7.593,0,15.191-1.904,22.113-5.712c13.8-7.589,22.65-21.503,23.674-37.219l2.941-45.103 l0.735-11.269c0.666-10.208-2.963-20.345-9.957-27.811c-6.995-7.467-16.875-11.748-27.105-11.748H387.02 c-10.23,0-20.11,4.282-27.104,11.748c-6.994,7.466-10.623,17.603-9.957,27.811L351.059,189.795z M411.702,248.611 c-7.691,4.23-16.873,4.23-24.564,0c-7.666-4.215-12.582-11.944-13.152-20.674l-1.933-29.637 c18.068-2.562,29.817-8.754,37.131-14.527c1.376,0.98,2.906,1.907,4.589,2.776c3.097,1.6,7.542,3.184,13.464,4.796l-2.387,36.592 C424.283,236.667,419.368,244.396,411.702,248.611z M428.566,170.488c-3.155-0.993-4.729-1.7-5.428-2.061 c-0.669-0.346-1.193-0.655-1.619-0.929l2.976-7.936C427.145,162.631,428.577,166.448,428.566,170.488z M374.801,159.029 c3.199-3.415,7.539-5.295,12.218-5.295h17.877l-3.352,8.941c-1.537,2.213-9.309,11.774-30.82,15.215l-0.412-6.324 C370.007,166.896,371.602,162.443,374.801,159.029z"/> <path style="fill:#4D3D36;" d="M511.836,358.861l-4.107-22.673c-5.063-27.95-27.206-50.258-55.099-55.51 c-4.21-0.794-8.517-1.195-12.801-1.195h-12.371c-2.705,0-5.298,1.075-7.212,2.987l-20.825,20.825l-20.826-20.826 c-1.913-1.912-4.507-2.987-7.212-2.987h-12.37c-4.284,0-8.591,0.402-12.801,1.195c-9.069,1.707-17.54,5.17-25.225,10.256 c-3.598-0.44-7.223-0.683-10.839-0.683h-22.533c-2.711,0-5.31,1.079-7.224,2.999l-24.636,24.719l-25.248-24.796 c-1.907-1.873-4.473-2.922-7.147-2.922h-21.845c-3.514,0-7.038,0.234-10.54,0.649c-7.684-5.074-16.151-8.52-25.191-10.222 c-4.21-0.794-8.517-1.195-12.801-1.195h-12.37c-2.705,0-5.3,1.075-7.212,2.987l-20.825,20.826l-20.825-20.826 c-1.912-1.912-4.507-2.987-7.212-2.987H72.171c-4.284,0-8.591,0.402-12.801,1.195c-27.894,5.252-50.036,27.559-55.099,55.509 l-4.107,22.673c-0.539,2.975,0.269,6.035,2.208,8.356c1.938,2.32,4.805,3.661,7.828,3.661H112.38l-4.2,23.189 c-0.539,2.975,0.27,6.035,2.208,8.355c1.938,2.32,4.805,3.662,7.828,3.662h275.237c3.023,0,5.89-1.341,7.829-3.662 c1.937-2.32,2.746-5.381,2.207-8.355l-4.201-23.188H501.8c3.023,0,5.89-1.341,7.829-3.662 C511.566,364.897,512.374,361.836,511.836,358.861z M248.686,339.617c3.998,3.926,10.414,3.891,14.371-0.077l28.794-28.89h9.713 l-45.732,45.732L210.1,310.65h9.091L248.686,339.617z M24.342,339.824c3.567-19.689,19.16-35.401,38.803-39.1 c2.969-0.559,6.005-0.842,9.025-0.842h8.145l25.05,25.05c3.983,3.982,10.441,3.982,14.425,0l25.05-25.05h8.146 c2.421,0,4.852,0.191,7.252,0.552c-20.012,10.527-35.621,28.452-43.1,50.048H22.412L24.342,339.824z M130.427,385.686l3.344-18.461 c4.739-26.155,24.461-47.356,49.847-54.211l65.004,65.004c3.984,3.984,10.441,3.983,14.425,0l65.004-65.004 c25.385,6.856,45.107,28.057,49.846,54.211l3.344,18.461H130.427z M394.528,350.48c-7.469-21.567-23.046-39.474-43.019-50.006 c2.481-0.387,4.999-0.593,7.505-0.593h8.144l25.051,25.05c1.913,1.912,4.507,2.987,7.212,2.987s5.298-1.075,7.212-2.987 l25.05-25.05h8.145c3.02,0,6.056,0.284,9.026,0.842c19.643,3.698,35.236,19.412,38.803,39.1l1.931,10.656H394.528z"/> <path style="fill:#4D3D36;" d="M64.216,189.796l2.573,39.47c1.025,15.716,9.876,29.629,23.674,37.219 c6.923,3.807,14.518,5.712,22.113,5.712s15.19-1.904,22.113-5.712c13.8-7.59,22.65-21.504,23.674-37.219l2.941-45.103l0.735-11.269 c0.666-10.208-2.964-20.345-9.958-27.811c-6.995-7.466-16.874-11.748-27.104-11.748h-24.801c-10.23,0-20.109,4.282-27.103,11.747 c-6.995,7.466-10.625,17.603-9.96,27.812L64.216,189.796z M124.86,248.611c-7.691,4.23-16.874,4.23-24.565,0 c-7.665-4.215-12.581-11.944-13.15-20.674L85.212,198.3c18.068-2.562,29.817-8.754,37.131-14.527 c1.375,0.98,2.906,1.906,4.589,2.776c3.098,1.6,7.543,3.184,13.464,4.796l-2.387,36.592 C137.442,236.667,132.526,244.396,124.86,248.611z M141.723,170.488c-3.155-0.993-4.729-1.7-5.428-2.061 c-0.669-0.346-1.193-0.656-1.619-0.929l2.976-7.936C140.302,162.631,141.734,166.449,141.723,170.488z M87.959,159.029 c3.199-3.416,7.539-5.295,12.218-5.295h17.876l-3.377,9.006c-1.289,1.833-9.144,11.638-30.794,15.141l-0.412-6.313 C83.164,166.896,84.76,162.443,87.959,159.029z"/> <path style="fill:#4D3D36;" d="M194.328,178.074l3.461,53.056c1.299,19.922,12.519,37.561,30.012,47.182 c8.777,4.827,18.402,7.24,28.033,7.24c9.626,0,19.257-2.414,28.032-7.24c17.494-9.622,28.713-27.26,30.012-47.182l3.954-60.627 v-0.001l0.987-15.148c0.832-12.757-3.703-25.425-12.444-34.755c-8.741-9.329-21.087-14.681-33.872-14.681h-33.339 c-12.785,0-25.131,5.352-33.872,14.681c-8.741,9.329-13.277,21.998-12.445,34.755L194.328,178.074z M274.034,260.437 c-11.398,6.268-25.006,6.268-36.403,0c-11.359-6.247-18.644-17.7-19.488-30.636l-2.812-43.113 c27.158-3.285,43.841-12.875,53.452-21.046c2.219,1.857,4.872,3.586,7.954,5.178c4.418,2.283,11.069,4.561,20.18,6.913 l-3.396,52.069C292.679,242.738,285.393,254.19,274.034,260.437z M298.464,154.026l-0.192,2.952 c-7.119-1.991-10.574-3.455-12.17-4.28c-2.626-1.356-4.036-2.467-4.763-3.167l6.759-18.025c1.2,0.905,2.338,1.915,3.39,3.039 C296.459,139.851,298.937,146.769,298.464,154.026z M220.177,134.545c4.972-5.307,11.714-8.229,18.986-8.229h29.095l-6.433,17.154 c-1.898,2.915-13.51,18.444-47.823,22.843l-0.801-12.287C212.728,146.769,215.206,139.851,220.177,134.545z"/> <path style="fill:#4D3D36;" d="M180.525,357.838h-26.518c-5.633,0-10.199,4.566-10.199,10.199c0,5.633,4.566,10.199,10.199,10.199 h26.518c5.633,0,10.199-4.566,10.199-10.199C190.724,362.404,186.158,357.838,180.525,357.838z"/> <path style="fill:#4D3D36;" d="M211.123,357.838h-2.04c-5.633,0-10.199,4.566-10.199,10.199c0,5.633,4.566,10.199,10.199,10.199 h2.04c5.633,0,10.199-4.566,10.199-10.199C221.322,362.404,216.756,357.838,211.123,357.838z"/> </g> </g>
</svg>