<?xml version="1.0" encoding="iso-8859-1"?>
<!-- Uploaded to: SVG Repo, www.svgrepo.com, Generator: SVG Repo Mixer Tools -->
<svg height="800px" width="800px" version="1.1" id="Layer_1" xmlns="http://www.w3.org/2000/svg" xmlns:xlink="http://www.w3.org/1999/xlink" 
	 viewBox="0 0 511.999 511.999" xml:space="preserve">
<path style="fill:#D35B38;" d="M123.434,318.857c0,0-2.433,4.703,7.297,9.729c3.961,2.047,11.228,4.039,18.453,5.683l0.695-10.656
	c0.958-14.691-10.699-27.133-25.422-27.133h-23.45c-14.722,0-26.379,12.442-25.422,27.133l1.042,15.982
	C113.576,337.541,123.434,318.857,123.434,318.857z"/>
<path style="fill:#FFE6B8;" d="M130.731,328.587c-9.729-5.027-7.297-9.729-7.297-9.729s-9.858,18.683-46.807,20.738l2.434,37.321
	c0.75,11.498,7.314,21.817,17.41,27.37l0,0c10.126,5.569,22.396,5.569,32.522,0l0,0c10.095-5.552,16.66-15.873,17.41-27.37
	l2.781-42.647C141.96,332.626,134.692,330.633,130.731,328.587z"/>
<path style="fill:#BCC987;" d="M205.653,480.362c-4.166-22.995-22.115-40.534-44.395-44.729c-3.352-0.631-6.802-0.964-10.319-0.964
	h-11.696l-26.511,26.511l-26.51-26.511H74.525c-3.517,0-6.966,0.332-10.319,0.964c-22.28,4.195-40.229,21.733-44.395,44.729
	l-3.884,21.439h193.609L205.653,480.362z"/>
<path style="fill:#D35B38;" d="M409.97,318.857c0,0-2.433,4.703,7.297,9.729c3.961,2.047,11.228,4.039,18.453,5.683l0.695-10.656
	c0.958-14.691-10.699-27.133-25.421-27.133h-23.451c-14.722,0-26.379,12.442-25.422,27.133l1.042,15.982
	C400.113,337.541,409.97,318.857,409.97,318.857z"/>
<path style="fill:#FFE6B8;" d="M417.267,328.587c-9.729-5.027-7.297-9.729-7.297-9.729s-9.858,18.683-46.807,20.738l2.434,37.321
	c0.75,11.498,7.314,21.817,17.41,27.37l0,0c10.126,5.569,22.396,5.569,32.522,0l0,0c10.095-5.552,16.66-15.873,17.41-27.37
	l2.781-42.647C428.495,332.626,421.228,330.633,417.267,328.587z"/>
<path style="fill:#BCC987;" d="M492.189,480.362c-4.166-22.995-22.115-40.534-44.395-44.729c-3.352-0.631-6.802-0.964-10.319-0.964
	h-11.696l-26.511,26.511l-26.511-26.511h-11.696c-3.517,0-6.966,0.332-10.319,0.964c-22.28,4.195-40.229,21.733-44.395,44.729
	l-3.884,21.439h193.609L492.189,480.362z"/>
<path style="fill:#D35B38;" d="M266.702,32.576c0,0-2.433,4.703,7.297,9.729c3.961,2.047,11.228,4.039,18.453,5.683l0.695-10.656
	c0.959-14.691-10.699-27.133-25.421-27.133h-23.451c-14.722,0-26.379,12.442-25.422,27.133l1.042,15.982
	C256.844,51.259,266.702,32.576,266.702,32.576z"/>
<path style="fill:#FFE6B8;" d="M273.999,42.305c-9.729-5.027-7.297-9.729-7.297-9.729s-9.858,18.683-46.807,20.738l2.434,37.321
	c0.75,11.498,7.314,21.817,17.41,27.37l0,0c10.126,5.569,22.396,5.569,32.522,0l0,0c10.095-5.552,16.66-15.872,17.41-27.37
	l2.781-42.647C285.227,46.344,277.96,44.352,273.999,42.305z"/>
<path style="fill:#BCC987;" d="M348.921,194.081c-4.166-22.995-22.115-40.534-44.395-44.729c-3.352-0.631-6.802-0.964-10.319-0.964
	h-11.696L256,174.9l-26.511-26.511h-11.696c-3.517,0-6.966,0.333-10.319,0.964c-22.28,4.195-40.229,21.733-44.395,44.729
	l-3.884,21.439h193.609L348.921,194.081z"/>
<g>
	<path style="fill:#4D3D36;" d="M66.45,340.26v0.001l2.434,37.319c0.981,15.05,9.457,28.374,22.672,35.643
		c6.631,3.646,13.904,5.47,21.177,5.47s14.547-1.824,21.177-5.47c13.215-7.269,21.692-20.593,22.672-35.643l2.781-42.647
		l0.696-10.656c0.639-9.806-2.848-19.542-9.567-26.713c-6.718-7.17-16.208-11.283-26.032-11.283h-23.451
		c-9.826,0-19.315,4.112-26.032,11.283c-6.719,7.171-10.206,16.907-9.567,26.714L66.45,340.26z M124.077,395.349
		c-7.104,3.907-15.587,3.907-22.691,0c-7.08-3.894-11.623-11.034-12.148-19.097l-1.794-27.511
		c16.634-2.444,27.599-8.14,34.535-13.524c1.233,0.856,2.591,1.667,4.069,2.43c2.885,1.491,6.98,2.964,12.404,4.458l-2.226,34.147
		C135.7,384.315,131.159,391.455,124.077,395.349z M139.719,321.202c-2.446-0.8-3.715-1.371-4.306-1.678
		c-0.433-0.223-0.789-0.427-1.106-0.617l2.317-6.179C138.504,315.191,139.575,318.113,139.719,321.202z M89.859,311.511
		c2.918-3.116,6.877-4.831,11.148-4.831h16.101l-2.863,7.634c-1.461,2.078-8.605,10.73-28.132,14.005l-0.351-5.368
		C85.485,318.689,86.939,314.626,89.859,311.511z"/>
	<path style="fill:#4D3D36;" d="M215.69,478.545C215.69,478.544,215.69,478.544,215.69,478.545
		c-4.828-26.653-25.945-47.925-52.544-52.934c-4.015-0.757-8.123-1.14-12.206-1.14h-11.696c-2.705,0-5.298,1.075-7.212,2.987
		l-19.299,19.299l-19.299-19.299c-1.913-1.912-4.507-2.987-7.212-2.987H74.525c-4.084,0-8.191,0.384-12.206,1.14
		c-26.6,5.009-47.715,26.281-52.543,52.933L5.89,499.982c-0.539,2.975,0.27,6.035,2.207,8.355c1.938,2.32,4.806,3.662,7.829,3.662
		h193.609c3.023,0,5.89-1.341,7.829-3.662c1.937-2.32,2.746-5.381,2.207-8.355L215.69,478.545z M28.141,491.602l1.707-9.422
		c3.332-18.39,17.898-33.068,36.246-36.523c2.774-0.522,5.611-0.787,8.432-0.787h7.471l23.523,23.523
		c3.984,3.982,10.44,3.982,14.425,0l23.523-23.523h7.471c2.821,0,5.658,0.265,8.432,0.787c18.348,3.456,32.915,18.133,36.247,36.524
		l0,0l1.706,9.421H28.141z"/>
	<path style="fill:#4D3D36;" d="M361.51,297.564c-6.719,7.171-10.206,16.907-9.567,26.714l1.042,15.981v0.001l2.434,37.319
		c0.981,15.05,9.457,28.374,22.672,35.643c6.63,3.646,13.904,5.47,21.177,5.47s14.547-1.824,21.177-5.47
		c13.215-7.269,21.692-20.593,22.672-35.643l2.781-42.647l0.696-10.656c0.639-9.806-2.848-19.542-9.567-26.713
		c-6.718-7.17-16.208-11.283-26.032-11.283h-23.45C377.717,286.28,368.228,290.394,361.51,297.564z M410.614,395.349
		c-7.104,3.907-15.587,3.907-22.691,0c-7.08-3.894-11.623-11.034-12.148-19.097l-1.794-27.511c16.634-2.444,27.6-8.14,34.535-13.524
		c1.233,0.856,2.591,1.667,4.069,2.43c2.885,1.491,6.98,2.964,12.404,4.458l-2.227,34.147
		C422.236,384.315,417.694,391.455,410.614,395.349z M426.255,321.202c-2.446-0.8-3.715-1.371-4.306-1.678
		c-0.433-0.223-0.789-0.427-1.105-0.617l2.317-6.179C425.04,315.191,426.111,318.113,426.255,321.202z M376.395,311.511
		c2.918-3.116,6.877-4.831,11.148-4.831h16.101l-2.863,7.634c-1.461,2.078-8.605,10.73-28.132,14.005l-0.351-5.368
		C372.021,318.689,373.475,314.626,376.395,311.511z"/>
	<path style="fill:#4D3D36;" d="M506.109,499.982l-3.885-21.439c-4.827-26.653-25.944-47.925-52.543-52.934
		c-4.015-0.757-8.123-1.14-12.206-1.14h-11.696c-2.705,0-5.298,1.075-7.212,2.987l-19.299,19.299l-19.299-19.299
		c-1.913-1.912-4.507-2.987-7.212-2.987H361.06c-4.084,0-8.191,0.383-12.206,1.14c-26.6,5.009-47.715,26.281-52.543,52.933
		l-3.885,21.439c-0.539,2.975,0.27,6.035,2.207,8.355c1.938,2.32,4.806,3.661,7.829,3.661h193.609c3.023,0,5.89-1.341,7.829-3.661
		C505.839,506.018,506.647,502.957,506.109,499.982z M314.676,491.602l1.707-9.422c3.332-18.39,17.898-33.068,36.246-36.523
		c2.774-0.522,5.611-0.787,8.432-0.787h7.471l23.523,23.523c3.984,3.982,10.44,3.982,14.425,0l23.523-23.523h7.471
		c2.821,0,5.657,0.265,8.432,0.787c18.348,3.456,32.914,18.133,36.246,36.523l0,0l1.707,9.421H314.676V491.602z"/>
	<path style="fill:#4D3D36;" d="M209.718,53.978L209.718,53.978l2.434,37.321c0.981,15.05,9.457,28.374,22.672,35.643
		c6.631,3.646,13.904,5.469,21.177,5.469c7.273,0,14.546-1.823,21.177-5.469c13.215-7.269,21.692-20.593,22.672-35.643l2.781-42.647
		l0.696-10.656c0.639-9.806-2.848-19.542-9.567-26.713C287.04,4.112,277.551,0,267.725,0h-23.45
		c-9.826,0-19.315,4.112-26.032,11.283c-6.719,7.171-10.206,16.907-9.567,26.714L209.718,53.978z M267.346,109.068
		c-7.105,3.907-15.586,3.907-22.691,0c-7.08-3.894-11.623-11.034-12.148-19.097l-1.794-27.511
		c16.634-2.444,27.599-8.14,34.535-13.524c1.234,0.856,2.591,1.667,4.07,2.43c2.886,1.491,6.981,2.964,12.403,4.458l-2.227,34.147
		C278.969,98.035,274.426,105.174,267.346,109.068z M282.987,34.921c-2.446-0.8-3.715-1.372-4.306-1.678
		c-0.433-0.223-0.789-0.427-1.106-0.617l2.317-6.18C281.771,28.91,282.843,31.832,282.987,34.921z M233.126,25.23
		c2.919-3.116,6.878-4.831,11.149-4.831h16.101l-2.863,7.634c-1.461,2.078-8.605,10.73-28.132,14.005l-0.351-5.368
		C228.753,32.408,230.207,28.346,233.126,25.23z"/>
	<path style="fill:#4D3D36;" d="M159.195,225.72h193.609c3.023,0,5.89-1.341,7.829-3.662c1.937-2.32,2.746-5.381,2.207-8.355
		l-3.884-21.439l0,0c-4.828-26.653-25.945-47.925-52.544-52.933c-4.015-0.757-8.123-1.14-12.206-1.14H282.51
		c-2.705,0-5.298,1.075-7.212,2.987L256,160.475l-19.299-19.299c-1.913-1.912-4.507-2.987-7.212-2.987h-11.696
		c-4.084,0-8.191,0.383-12.206,1.14c-26.6,5.009-47.715,26.281-52.543,52.933l-3.885,21.439c-0.539,2.975,0.27,6.035,2.207,8.355
		C153.305,224.378,156.172,225.72,159.195,225.72z M173.115,195.899c3.332-18.39,17.898-33.068,36.246-36.523
		c2.774-0.522,5.611-0.787,8.432-0.787h7.472l23.522,23.523c3.984,3.983,10.44,3.983,14.425,0l23.522-23.523h7.472
		c2.821,0,5.658,0.265,8.432,0.787c18.348,3.455,32.915,18.133,36.247,36.524l0,0l1.706,9.422H171.409L173.115,195.899z"/>
	<path style="fill:#4D3D36;" d="M252.926,267.727c5.632,0,10.199-4.566,10.199-10.199v-3.074c0-5.633-4.567-10.199-10.199-10.199
		s-10.199,4.566-10.199,10.199v3.074C242.727,263.161,247.294,267.727,252.926,267.727z"/>
	<path style="fill:#4D3D36;" d="M242.727,325.409l-61.448,35.478c-4.878,2.816-6.55,9.054-3.733,13.932
		c1.89,3.272,5.317,5.101,8.843,5.101c1.73,0,3.484-0.441,5.089-1.368l61.448-35.478l61.448,35.478
		c1.606,0.927,3.36,1.368,5.089,1.368c3.525,0,6.953-1.829,8.843-5.101c2.817-4.878,1.145-11.116-3.733-13.932l-61.448-35.478
		V287.24c0-5.633-4.567-10.199-10.199-10.199s-10.199,4.566-10.199,10.199L242.727,325.409L242.727,325.409z"/>
</g>
</svg>