<!DOCTYPE svg PUBLIC "-//W3C//DTD SVG 1.1//EN" "http://www.w3.org/Graphics/SVG/1.1/DTD/svg11.dtd">
<!-- Uploaded to: SVG Repo, www.svgrepo.com, Transformed by: SVG Repo Mixer Tools -->
<svg height="256px" width="256px" version="1.1" id="Layer_1" xmlns="http://www.w3.org/2000/svg" xmlns:xlink="http://www.w3.org/1999/xlink" viewBox="0 0 512 512" xml:space="preserve" fill="#000000">
<g id="SVGRepo_bgCarrier" stroke-width="0"/>
<g id="SVGRepo_tracerCarrier" stroke-linecap="round" stroke-linejoin="round"/>
<g id="SVGRepo_iconCarrier"> <path style="fill:#D35B38;" d="M256,10.199C120.248,10.199,10.199,120.248,10.199,256S120.248,501.801,256,501.801 S501.801,391.752,501.801,256S391.752,10.199,256,10.199z"/> <circle style="fill:#FFE6B8;" cx="256" cy="256" r="205.596"/> <circle style="fill:#BCC987;" cx="256" cy="256" r="19.974"/> <g> <path style="fill:#4D3D36;" d="M437.02,74.98C388.667,26.628,324.38,0,256,0S123.333,26.628,74.98,74.98S0,187.62,0,256 s26.628,132.667,74.98,181.02S187.62,512,256,512s132.667-26.628,181.02-74.98S512,324.38,512,256S485.372,123.333,437.02,74.98z M256,491.602c-129.911,0-235.602-105.69-235.602-235.602S126.089,20.398,256,20.398S491.602,126.089,491.602,256 S385.911,491.602,256,491.602z"/> <path style="fill:#4D3D36;" d="M256,40.201C137.008,40.201,40.201,137.008,40.201,256S137.008,471.799,256,471.799 S471.799,374.992,471.799,256S374.992,40.201,256,40.201z M362.366,419.834l-16.96-29.376c-2.817-4.879-9.055-6.55-13.932-3.733 c-4.878,2.816-6.55,9.054-3.733,13.932l16.982,29.412c-23.785,12.172-50.376,19.611-78.524,21.065v-33.988 c0-5.633-4.566-10.199-10.199-10.199s-10.199,4.566-10.199,10.199v33.988c-28.148-1.454-54.738-8.893-78.524-21.065l16.982-29.412 c2.817-4.878,1.145-11.116-3.733-13.932c-4.877-2.815-11.116-1.145-13.932,3.733l-16.96,29.376 c-22.925-14.935-42.533-34.543-57.467-57.467l29.376-16.96c4.878-2.816,6.55-9.054,3.733-13.932 c-2.816-4.878-9.055-6.55-13.932-3.733L81.93,344.723c-12.172-23.785-19.611-50.376-21.065-78.524h33.988 c5.633,0,10.199-4.566,10.199-10.199s-4.566-10.199-10.199-10.199H60.865c1.454-28.148,8.893-54.738,21.065-78.524l29.412,16.982 c1.606,0.927,3.36,1.368,5.09,1.368c3.525,0,6.953-1.829,8.842-5.101c2.817-4.878,1.145-11.116-3.733-13.932l-29.376-16.96 c14.935-22.925,34.543-42.533,57.467-57.467l16.96,29.376c1.889,3.272,5.317,5.101,8.842,5.101c1.73,0,3.484-0.441,5.09-1.368 c4.878-2.816,6.55-9.054,3.733-13.932L167.277,81.93c23.785-12.172,50.376-19.611,78.524-21.065v33.988 c0,5.633,4.566,10.199,10.199,10.199c5.633,0,10.199-4.566,10.199-10.199V60.865c28.148,1.454,54.738,8.893,78.524,21.065 l-16.982,29.412c-2.817,4.878-1.145,11.116,3.733,13.932c1.606,0.927,3.36,1.368,5.09,1.368c3.525,0,6.953-1.829,8.842-5.101 l16.96-29.376c22.925,14.935,42.533,34.543,57.467,57.467l-29.376,16.96c-4.878,2.816-6.55,9.054-3.733,13.932 c1.889,3.272,5.317,5.101,8.842,5.101c1.73,0,3.484-0.441,5.09-1.368l29.412-16.982c12.172,23.785,19.611,50.376,21.065,78.524 h-33.988c-5.633,0-10.199,4.566-10.199,10.199c0,5.633,4.566,10.199,10.199,10.199h33.988 c-1.454,28.148-8.893,54.738-21.065,78.524l-29.412-16.982c-4.877-2.815-11.115-1.145-13.932,3.733 c-2.817,4.878-1.145,11.116,3.733,13.932l29.376,16.96C404.899,385.29,385.29,404.899,362.366,419.834z"/> <path style="fill:#4D3D36;" d="M266.199,227.604v-65.437c0-5.633-4.566-10.199-10.199-10.199s-10.199,4.566-10.199,10.199v65.437 c-11.633,4.191-19.974,15.337-19.974,28.396c0,7.418,2.696,14.215,7.153,19.474l-16.189,28.041 c-2.817,4.878-1.145,11.116,3.733,13.932c1.606,0.928,3.36,1.368,5.09,1.368c3.525,0,6.953-1.829,8.842-5.101l16.181-28.027 c1.742,0.314,3.532,0.486,5.363,0.486c16.638,0,30.173-13.535,30.173-30.173C286.173,242.941,277.832,231.796,266.199,227.604z M256,265.775c-5.39,0-9.775-4.385-9.775-9.775c0-5.39,4.385-9.775,9.775-9.775c5.39,0,9.775,4.385,9.775,9.775 S261.39,265.775,256,265.775z"/> <path style="fill:#4D3D36;" d="M256,142.789c5.633,0,10.199-4.566,10.199-10.199v-4.08c0-5.633-4.566-10.199-10.199-10.199 s-10.199,4.566-10.199,10.199v4.08C245.801,138.223,250.367,142.789,256,142.789z"/> </g> </g>
</svg>