<?xml version="1.0" encoding="iso-8859-1"?>
<!-- Uploaded to: SVG Repo, www.svgrepo.com, Generator: SVG Repo Mixer Tools -->
<svg height="800px" width="800px" version="1.1" id="Layer_1" xmlns="http://www.w3.org/2000/svg" xmlns:xlink="http://www.w3.org/1999/xlink" 
	 viewBox="0 0 392.598 392.598" xml:space="preserve">
<path style="fill:#FFFFFF;" d="M160.517,64.905c0-23.79-19.329-43.119-43.119-43.119S74.279,41.18,74.279,64.905
	s19.329,43.119,43.119,43.119S160.517,88.695,160.517,64.905z"/>
<path style="fill:#194F82;" d="M117.398,0c-35.75,0-64.905,29.156-64.905,64.905s29.091,64.905,64.905,64.905
	s64.905-29.156,64.905-64.905S153.147,0,117.398,0z M74.279,64.905c0-23.79,19.329-43.119,43.119-43.119
	s43.119,19.329,43.119,43.119s-19.329,43.119-43.119,43.119S74.279,88.695,74.279,64.905z"/>
<path style="fill:#56ACE0;" d="M160.517,276.558c0-34.327,15.063-65.164,38.853-86.368c-3.685-3.426-8.016-6.012-12.735-7.758
	c-9.18-3.168-18.489-5.689-27.604-7.564l-31.547,79.257c-3.62,9.18-16.614,9.18-20.234,0l-31.547-79.386
	c-9.18,1.875-18.489,4.396-27.604,7.564c-10.537,3.62-18.618,11.766-22.885,21.786H60.38c6.012,0,10.925,4.848,10.925,10.925
	c0,6.012-4.848,10.925-10.925,10.925H21.786v19.394h17.519c6.012,0,10.925,4.848,10.925,10.925c0,6.012-4.848,10.925-10.925,10.925
	H21.786v30.061h140.606C161.293,290.457,160.517,283.604,160.517,276.558z"/>
<path style="fill:#FFC10D;" d="M286.125,204.8c0.84,1.552,1.358,3.362,1.358,5.236v66.521c0,6.012-4.848,10.925-10.925,10.925
	h-35.879c-6.012,0-10.861-4.848-10.861-10.925c0-6.012,4.848-10.861,10.861-10.861h24.954v-55.661c0-1.939,0.517-3.685,1.358-5.236
	c-35.426,4.719-62.836,35.103-62.836,71.758c0,39.952,32.453,72.404,72.404,72.404c39.887,0,72.404-32.453,72.404-72.404
	C348.962,239.838,321.552,209.455,286.125,204.8z"/>
<g>
	<path style="fill:#194F82;" d="M276.558,160.517c-21.657,0-41.891,6.077-59.216,16.485c-6.594-6.853-14.545-11.96-23.596-15.127
		c-13.317-4.655-26.764-7.952-39.952-10.02c-5.042-0.776-9.956,2.004-11.83,6.723l-24.566,62.061l-24.63-62.125
		c-1.875-4.719-6.788-7.499-11.83-6.723c-13.382,2.069-26.828,5.495-39.952,10.02C16.485,170.408,0,193.875,0,220.38v87.79
		c0,6.012,4.848,10.925,10.925,10.925h157.802c17.002,42.99,58.893,73.503,107.895,73.503c64,0,115.976-52.105,115.976-115.976
		S340.428,160.517,276.558,160.517z M162.263,297.18H21.657v-30.061h0.129h17.519c6.012,0,10.925-4.848,10.925-10.925
		c0-6.077-4.848-10.925-10.925-10.925H21.786v-19.394h38.529c6.012,0,10.925-4.848,10.925-10.925
		c0-6.012-4.848-10.925-10.925-10.925H25.212c4.331-10.02,12.412-18.101,22.885-21.786c9.115-3.168,18.36-5.689,27.604-7.564
		l31.547,79.386c3.62,9.18,16.614,9.18,20.234,0l31.418-79.386c9.18,1.875,18.489,4.396,27.604,7.564
		c4.784,1.681,9.051,4.331,12.735,7.758c-23.79,21.269-38.853,52.105-38.853,86.368C160.323,283.604,161.099,290.457,162.263,297.18
		z M276.558,370.747L276.558,370.747c-0.065,0-0.065,0-0.065,0c-51.911,0-94.19-42.279-94.19-94.19s42.279-94.19,94.19-94.19
		c0,0,0,0,0.065,0c0.065,0,0,0,0.065,0c51.911,0,94.19,42.279,94.19,94.19C370.747,328.469,328.469,370.747,276.558,370.747z"/>
	<path style="fill:#194F82;" d="M276.558,182.368L276.558,182.368c51.846,0,94.125,42.279,94.125,94.19s-42.279,94.19-94.125,94.19
		c0,0,0,0,0.065,0c51.911,0,94.19-42.279,94.19-94.19C370.747,224.646,328.469,182.368,276.558,182.368z"/>
	<path style="fill:#194F82;" d="M276.558,199.111c-6.012,0-10.925,4.848-10.925,10.925v55.661h-24.954
		c-6.012,0-10.925,4.848-10.925,10.925c0,6.012,4.848,10.925,10.925,10.925h35.879c6.012,0,10.925-4.848,10.925-10.925v-66.586
		C287.418,204.024,282.57,199.111,276.558,199.111z"/>
</g>
</svg>